HIERARCHY
ROOT joint_Root
{
	OFFSET 0.0 0.0 0.0
	CHANNELS 6 Xposition Yposition Zposition Zrotation Xrotation Yrotation 
	JOINT Hips
	{
		OFFSET 4.5925 91.4895 -427.239
		CHANNELS 6 Xposition Yposition Zposition Zrotation Xrotation Yrotation 
		JOINT Spine
		{
			OFFSET 15.7357 0.0 0.0
			CHANNELS 6 Xposition Yposition Zposition Zrotation Xrotation Yrotation 
			JOINT Chest
			{
				OFFSET 8.98455 -0.406207 0.0
				CHANNELS 6 Xposition Yposition Zposition Zrotation Xrotation Yrotation 
				JOINT Neck
				{
					OFFSET 16.3773 0.0 0.0
					CHANNELS 6 Xposition Yposition Zposition Zrotation Xrotation Yrotation 
					JOINT Head
					{
						OFFSET 6.45672 0.0 0.0
						CHANNELS 6 Xposition Yposition Zposition Zrotation Xrotation Yrotation 
						End Site
						{
							OFFSET 0.0 0.0 0.0
						}
					}
				}
				JOINT Shoulder_L
				{
					OFFSET 12.9942 -0.242716 4.98039
					CHANNELS 6 Xposition Yposition Zposition Zrotation Xrotation Yrotation 
					JOINT UpperArm_L
					{
						OFFSET 5.34809 0.0 0.0
						CHANNELS 6 Xposition Yposition Zposition Zrotation Xrotation Yrotation 
						JOINT LowerArm_L
						{
							OFFSET 24.3286 1.87007e-05 0.0
							CHANNELS 6 Xposition Yposition Zposition Zrotation Xrotation Yrotation 
							JOINT Hand_L
							{
								OFFSET 22.2916 0.0 0.0
								CHANNELS 6 Xposition Yposition Zposition Zrotation Xrotation Yrotation 
								End Site
								{
									OFFSET 0.0 0.0 0.0
								}
							}
						}
					}
				}
				JOINT Shoulder_R
				{
					OFFSET 12.9945 -0.242716 -4.98039
					CHANNELS 6 Xposition Yposition Zposition Zrotation Xrotation Yrotation 
					JOINT UpperArm_R
					{
						OFFSET -5.34813 0.0 0.0
						CHANNELS 6 Xposition Yposition Zposition Zrotation Xrotation Yrotation 
						JOINT LowerArm_R
						{
							OFFSET -24.3289 0.000322201 0.0
							CHANNELS 6 Xposition Yposition Zposition Zrotation Xrotation Yrotation 
							JOINT Hand_R
							{
								OFFSET -22.2915 -0.000108084 0.0
								CHANNELS 6 Xposition Yposition Zposition Zrotation Xrotation Yrotation 
								End Site
								{
									OFFSET 0.0 0.0 0.0
								}
							}
						}
					}
				}
			}
		}
		JOINT UpperLeg_L
		{
			OFFSET -2.19248 -6.46944 0.0
			CHANNELS 6 Xposition Yposition Zposition Zrotation Xrotation Yrotation 
			JOINT LowerLeg_L
			{
				OFFSET 39.0811 0.0 -1.23785e-05
				CHANNELS 6 Xposition Yposition Zposition Zrotation Xrotation Yrotation 
				JOINT Foot_L
				{
					OFFSET 40.9854 0.0 -1.26872e-05
					CHANNELS 6 Xposition Yposition Zposition Zrotation Xrotation Yrotation 
					JOINT Toes_L
					{
						OFFSET 11.7543 0.0 0.0
						CHANNELS 6 Xposition Yposition Zposition Zrotation Xrotation Yrotation 
						End Site
						{
							OFFSET 0.0 0.0 0.0
						}
					}
				}
			}
		}
		JOINT UpperLeg_R
		{
			OFFSET -2.19251 6.46944 0.0
			CHANNELS 6 Xposition Yposition Zposition Zrotation Xrotation Yrotation 
			JOINT LowerLeg_R
			{
				OFFSET -39.0811 -0.00228153 -0.0401928
				CHANNELS 6 Xposition Yposition Zposition Zrotation Xrotation Yrotation 
				JOINT Foot_R
				{
					OFFSET -40.9854 0.0 0.0
					CHANNELS 6 Xposition Yposition Zposition Zrotation Xrotation Yrotation 
					JOINT Toes_R
					{
						OFFSET -11.7543 0.0 0.0
						CHANNELS 6 Xposition Yposition Zposition Zrotation Xrotation Yrotation 
						End Site
						{
							OFFSET 0.0 0.0 0.0
						}
					}
				}
			}
		}
	}
}
MOTION
Frames:	5
Frame Time:	0.0333333
0.000000 0.000000 0.000000 0.000000 0.000000 -0.000000 0.297664 84.447400 -0.932521 90.152000 -7.371740 9.726880 15.735700 0.000005 -0.000001 93.841700 81.400300 -93.016800 8.984550 -0.406207 -0.000000 9.388350 1.157510 1.553350 16.377300 -0.000001 -0.000001 -0.935559 -0.638445 1.199300 6.456720 -0.000001 -0.000000 -1.818910 -1.219140 4.455570 12.994200 -0.242716 4.980390 -91.550600 4.844800 -72.226800 5.348090 -0.000007 -0.000001 -69.353300 16.916500 -13.148300 24.328600 0.000019 0.000005 12.363300 15.102400 -40.068800 22.291600 -0.000001 0.000005 6.098680 5.415620 -3.462040 12.994500 -0.242716 -4.980390 88.157700 10.294200 -79.796200 -5.348130 -0.000001 -0.000004 -59.162200 32.820300 -8.726690 -24.328900 0.000322 -0.000009 1.971960 3.829110 -27.301800 -22.291500 -0.000108 -0.000004 19.867500 5.467750 -5.290010 -2.192480 -6.469440 -0.000000 -174.818000 -16.801400 -12.040300 39.081100 -0.000007 -0.000012 -0.427422 0.296368 55.264200 40.985400 -0.000006 -0.000013 1.933760 5.118540 -83.021800 11.754300 -0.000000 0.000003 -0.000686 -0.005179 -16.764300 -2.192510 6.469440 -0.000001 174.501000 13.276400 166.340000 -39.081100 -0.002282 -0.040193 0.061758 -0.039011 56.319600 -40.985400 0.000008 0.000006 7.666290 8.955180 -82.850900 -11.754300 -0.000006 -0.000006 -1.030820 -1.283370 -16.738700
0.000000 0.000000 0.000000 0.000000 0.000000 -0.000000 0.479382 85.892500 -0.224857 90.887600 -8.318140 10.417900 15.735700 0.000005 -0.000001 94.367600 81.765600 -92.966600 8.984550 -0.406207 -0.000000 8.642590 1.258750 2.704410 16.377300 -0.000001 -0.000001 1.274150 -0.764615 0.848780 6.456720 -0.000001 -0.000000 -0.582889 -1.280690 2.453150 12.994200 -0.242716 4.980390 -91.213500 3.516430 -70.943800 5.348090 -0.000007 -0.000001 -63.963000 12.273300 -20.370000 24.328600 0.000019 0.000005 14.014500 13.485600 -46.948800 22.291600 -0.000001 0.000005 6.653660 5.427710 -3.860260 12.994500 -0.242716 -4.980390 88.049500 9.986320 -78.888900 -5.348130 -0.000001 -0.000004 -60.878300 29.931100 -7.138070 -24.328900 0.000322 -0.000009 1.467200 3.225840 -24.469100 -22.291500 -0.000108 -0.000004 20.730800 5.435540 -4.129960 -2.192480 -6.469440 -0.000000 -175.589000 -16.714600 -8.224980 39.081100 -0.000007 -0.000012 -0.398996 0.333928 50.074300 40.985400 -0.000006 -0.000013 1.344590 4.143970 -81.032900 11.754300 -0.000000 0.000003 -0.000632 -0.004835 -16.752600 -2.192510 6.469440 -0.000001 173.350000 12.816000 169.507000 -39.081100 -0.002282 -0.040193 0.049370 -0.036175 51.896900 -40.985400 0.000008 0.000006 7.404860 9.994230 -80.969400 -11.754300 -0.000006 -0.000006 -0.986649 -1.223430 -16.888100
0.000000 0.000000 0.000000 0.000000 0.000000 -0.000000 0.429221 87.742900 0.346523 91.041400 -8.139700 10.209300 15.735700 0.000005 -0.000001 94.396700 82.606000 -92.227700 8.984550 -0.406207 -0.000000 6.962000 1.114660 4.265430 16.377300 -0.000001 -0.000001 4.409730 -1.581600 0.654425 6.456720 -0.000001 -0.000000 0.705928 -1.966030 0.802300 12.994200 -0.242716 4.980390 -90.696600 1.926870 -70.119900 5.348090 -0.000007 -0.000001 -56.893300 4.150040 -31.769800 24.328600 0.000019 0.000005 12.829800 10.138400 -52.312200 22.291600 -0.000001 0.000005 9.275050 5.425210 -3.777050 12.994500 -0.242716 -4.980390 87.929800 9.265840 -77.345900 -5.348130 -0.000001 -0.000004 -61.941900 28.746100 -4.996930 -24.328900 0.000322 -0.000009 0.273487 0.666470 -22.379000 -22.291500 -0.000108 -0.000004 20.170000 5.445300 -4.473400 -2.192480 -6.469440 -0.000000 -175.916000 -16.159100 -4.644310 39.081100 -0.000007 -0.000012 -0.351797 0.375672 43.121100 40.985400 -0.000006 -0.000013 0.937648 3.950010 -77.926300 11.754300 -0.000000 0.000003 -0.000507 -0.004030 -16.724800 -2.192510 6.469440 -0.000001 172.974000 13.542200 173.040000 -39.081100 -0.002282 -0.040193 0.037930 -0.034262 45.336000 -40.985400 0.000008 0.000006 7.007710 10.950200 -78.164600 -11.754300 -0.000006 -0.000006 -0.814653 -1.004350 -16.997800
0.000000 0.000000 0.000000 0.000000 0.000000 -0.000000 0.176824 89.319900 0.774141 90.883100 -7.698200 9.510580 15.735700 0.000005 -0.000001 93.474400 83.601100 -90.674700 8.984550 -0.406207 -0.000000 4.997470 0.706553 5.562100 16.377300 -0.000001 -0.000001 7.302650 -2.400390 1.151490 6.456720 -0.000001 -0.000000 1.992420 -2.677060 -0.016586 12.994200 -0.242716 4.980390 -89.971600 -0.079569 -70.246900 5.348090 -0.000007 -0.000001 -49.338600 -7.845250 -44.054000 24.328600 0.000019 0.000005 9.509980 6.254050 -56.975600 22.291600 -0.000001 0.000005 12.052100 5.431360 -3.975910 12.994500 -0.242716 -4.980390 87.880600 8.561130 -76.039300 -5.348130 -0.000001 -0.000004 -62.310500 28.334200 -2.581900 -24.328900 0.000322 -0.000009 0.555241 1.400120 -21.674600 -22.291500 -0.000108 -0.000004 17.859300 5.446750 -4.525310 -2.192480 -6.469440 -0.000000 -175.477000 -16.930600 -1.652350 39.081100 -0.000007 -0.000012 -0.256635 0.347955 36.411200 40.985400 -0.000006 -0.000013 0.915286 5.339120 -74.795900 11.754300 -0.000000 0.000003 -0.000313 -0.002697 -16.677900 -2.192510 6.469440 -0.000001 173.183000 14.615800 176.073000 -39.081100 -0.002282 -0.040193 0.028992 -0.031948 38.825800 -40.985400 0.000008 0.000006 6.880030 11.686500 -75.425900 -11.754300 -0.000006 -0.000006 -0.522865 -0.642238 -17.165000
0.000000 0.000000 0.000000 0.000000 0.000000 -0.000000 -0.113914 90.389900 0.968940 90.881400 -8.093350 7.935690 15.735700 0.000005 -0.000001 91.185300 84.600800 -88.054000 8.984550 -0.406207 -0.000000 3.035200 0.094102 6.253360 16.377300 -0.000001 -0.000001 8.821280 -2.609890 1.789530 6.456720 -0.000001 -0.000000 2.663400 -2.903860 -0.048039 12.994200 -0.242716 4.980390 -89.059600 -2.746300 -71.080600 5.348090 -0.000007 -0.000001 -44.329500 -24.764400 -54.691700 24.328600 0.000019 0.000005 7.893660 4.581240 -60.054800 22.291600 -0.000001 0.000005 13.396400 5.454390 -4.796600 12.994500 -0.242716 -4.980390 87.863500 8.332770 -75.564300 -5.348130 -0.000001 -0.000004 -61.486700 29.532400 -1.163270 -24.328900 0.000322 -0.000009 1.177040 3.014030 -21.362000 -22.291500 -0.000108 -0.000004 16.441300 5.440380 -4.298580 -2.192480 -6.469440 -0.000000 -175.230000 -18.836800 -0.291731 39.081100 -0.000007 -0.000012 -0.176536 0.293193 31.053100 40.985400 -0.000006 -0.000013 0.849233 7.044090 -72.217800 11.754300 -0.000000 0.000003 -0.000209 -0.001918 -16.649800 -2.192510 6.469440 -0.000001 173.585000 15.520000 177.121000 -39.081100 -0.002282 -0.040193 0.021197 -0.026766 33.776800 -40.985400 0.000008 0.000006 6.837840 12.959000 -73.342500 -11.754300 -0.000006 -0.000006 -0.461229 -0.566630 -16.995200
